<?xml version="1.0" encoding="UTF-8"?>
<svg version="1.1" viewBox="0 0 1024 1024" xmlns="http://www.w3.org/2000/svg">
 <rect width="1024" height="1024" display="none" fill="#f1e9db" style="paint-order:stroke fill markers"/>
 <path d="m316.93 232.83c-136.7 0-239.62 99.84-239.62 278.02 0 182.02 97.536 280.32 243.46 280.32 73.728 0 132.1-33.024 166.66-68.352l-56.832-73.728c-30.72 23.808-61.44 44.544-103.68 44.544-70.656 0-117.5-54.528-117.5-182.78 0-130.56 47.616-185.09 115.2-185.09 36.864 0 66.816 13.824 95.232 38.4l61.44-72.96c-43.776-36.864-92.16-58.368-164.35-58.368zm509.95 263.42c49.152-11.52 97.536-46.848 97.536-114.43 0-99.84-87.552-135.94-230.4-135.94h-150.53v532.22h171.26c133.63 0 231.94-33.792 231.94-155.14 0-86.016-60.672-115.2-119.81-126.72zm-120.58-161.28c60.672 0 89.856 14.592 89.856 59.136s-27.648 64.512-79.872 64.512h-46.848v-123.65zm9.216 351.74h-46.08v-144.38h55.296c54.528 0 92.16 19.968 92.16 73.728 0 58.368-42.24 70.656-101.38 70.656z" fill="#07020d" stroke="#f1e9db" stroke-width="144" style="paint-order:stroke fill markers" aria-label="CB"/>
</svg>
